<?xml version="1.0" encoding="utf-8"?>
<!-- Generator: Adobe Illustrator 23.0.5, SVG Export Plug-In . SVG Version: 6.00 Build 0)  -->
<svg version="1.1" id="Layer_1" xmlns="http://www.w3.org/2000/svg" xmlns:xlink="http://www.w3.org/1999/xlink" x="0px" y="0px"
	 viewBox="0 0 512 332.9" style="enable-background:new 0 0 512 332.9;" xml:space="preserve">
<style type="text/css">
	.st0{fill:#FFFFFF;}
	.st1{fill:#FFFFFF;stroke:#231F20;stroke-miterlimit:10;}
	.st2{fill:#FFFFFF;stroke:#231F20;stroke-width:0.5;stroke-miterlimit:10;}
</style>
<path class="st0" d="M57.2,193.4c13.7-8.4,28.4-15,43.8-19.5c-2.8-0.3-5.6,0-8.2,0.8v-28.5h27.4l38-21.8v-12.2H57.2V193.4z"/>
<path class="st0" d="M44,243.9c0,0,17.8-36.4,114.2-63.5v9.3l-38,22.4H92.6v67.3H57.3v-43L44,243.9z"/>
<path class="st0" d="M201.7,22.4L165,39.7v54.2h19.7v185.1h37.7V91.7H241V36.5L201.7,22.4z M196.4,34.2l-6.2,24.3
	c-2.1,6.7-13.8,10.3-16.2,3.7l-5-14.1c-0.6-1.6,0.1-3.4,1.6-4.1l23.1-11.8c0.9-0.4,2-0.1,2.5,0.8C196.5,33.4,196.6,33.8,196.4,34.2z
	 M237.9,44.5l-3,14.7c-0.6,2.9-5.1,4-8.8,3.7c-6.6-0.7-12.1-5.5-13.9-11.9l-3.4-16.3c-0.4-0.9,0-2,0.9-2.4c0.4-0.2,0.9-0.2,1.4-0.1
	l24.6,8.5C237.3,41.3,238.2,42.9,237.9,44.5z"/>
<path class="st0" d="M165,93.8v-3l38-14.7l38,13.1v2.4h-18.6v18.9c0,0-4.8,0.7-5.8,0c-1.1-0.7-3-3.9-4.4-3.5
	c-1.4,0.4-7.1,8.8-9.1,6.5c-2-2.3-5.6-9.7-12.3-8.7c-6.7,1.1-6,3.2-6,3.2V93.8H165z"/>
<path class="st0" d="M47.4,281.9c0,0-45.9-10.6-35.3-38.7s53.2-50.6,82.3-64c32.4-14.9,93.5-25.6,146.6-55.5
	c37.6-21.3,83.7-59.2,93.4-69.6c0,0-22.3,37.2-45.9,56.9c-24.3,20.3-37.9,40.3-112.1,61C106,191.7,5.2,222.1,47.4,281.9z"/>
<path class="st0" d="M417,132.3c0,0-26,28.4-27.3,27.6c-1.3-0.8-49.1-28.4-71.2-12s37.2,37.4,45.1,35.1l-27.6,27.6
	c0,0-55.5-5.4-61.1-41.4s18.9-55.2,53.1-57S417,132.3,417,132.3z"/>
<path class="st0" d="M251.1,250.2l28.4-28.2c0,0,13.3,14.6,33.7,19.1l108.6-104.4L316.4,275.7c0,0-26.9-4.2-46.7-19.4
	C259,248.2,251.1,250.2,251.1,250.2z"/>
<path class="st0" d="M326.8,277.9l98.3-138L391.8,198c0,0,23.1,21.5,9.3,50.4S349.9,285.9,326.8,277.9z"/>
<polygon class="st0" points="421.8,130.5 429.9,118.8 431.6,120.3 "/>
<polygon class="st0" points="423.9,136.8 433.6,124 436.2,123 436.2,126.4 "/>
<polygon class="st0" points="432.6,136.8 438.8,128.2 441.5,128.2 440.7,129.9 "/>
<polygon class="st1" points="430.9,117.3 438,109.9 449.8,121.1 443.5,128.2 "/>
<path class="st1" d="M438.9,110.8l38.6-47.9c0,0,4.1-5.4,16.2-9c0,0,0.1,11-4.6,18.1c-4.8,7-39.9,48.5-39.9,48.5L438.9,110.8z"/>
<polygon class="st1" points="426.7,112.1 452.1,97.9 439,110.8 "/>
<polygon class="st1" points="451.2,131.3 449.2,120.5 460.6,104.7 "/>
<polyline class="st2" points="472.5,74.7 476.7,78.2 485.4,68.6 "/>
<polygon class="st0" points="312,56.9 313.1,60.1 316.5,60.1 313.7,62.1 314.8,65.4 312,63.4 309.3,65.4 310.3,62.1 307.5,60.1 
	311,60.1 "/>
<polygon class="st0" points="321.4,47.6 322.8,51.7 327,51.7 323.6,54.2 324.9,58.2 321.4,55.7 318,58.2 319.3,54.2 315.9,51.7 
	320.1,51.7 "/>
</svg>
